<svg width="32" height="32" viewBox="0 0 32 32" fill="none" xmlns="http://www.w3.org/2000/svg">
<path d="M0 4C0 1.79086 1.79086 0 4 0H28C30.2091 0 32 1.79086 32 4V28C32 30.2091 30.2091 32 28 32H4C1.79086 32 0 30.2091 0 28V4Z" fill="#D1D1D1"/>
<path d="M22.2224 20.4449L22.9335 16.0004H18.6668V12.8893C18.6668 11.6449 19.1113 10.6671 21.0668 10.6671H23.1113V6.57821C21.9557 6.40043 20.7113 6.22266 19.5557 6.22266C15.9113 6.22266 13.3335 8.44488 13.3335 12.4449V16.0004H9.3335V20.4449H13.3335V32.0004C15.1113 32.0004 16.8891 32.0004 18.6668 32.0004V20.4449H22.2224Z" fill="white"/>
</svg>
