<svg width="32" height="32" viewBox="0 0 32 32" fill="none" xmlns="http://www.w3.org/2000/svg">
<path d="M0 4C0 1.79086 1.79086 0 4 0H28C30.2091 0 32 1.79086 32 4V28C32 30.2091 30.2091 32 28 32H4C1.79086 32 0 30.2091 0 28V4Z" fill="#D1D1D1"/>
<path d="M19.8228 11.4727C18.7864 10.4818 17.4682 9.97728 16 9.97728C13.3955 9.97728 11.1909 11.7364 10.4046 14.1C10.2046 14.7 10.0909 15.3409 10.0909 16C10.0909 16.6591 10.2045 17.3 10.4045 17.9C11.1909 20.2636 13.3955 22.0227 16 22.0227C17.3455 22.0227 18.4909 21.6682 19.3864 21.0682C20.4455 20.3591 21.15 19.3 21.3818 18.05H16V14.1818H25.4182C25.5364 14.8364 25.6 15.5182 25.6 16.2273C25.6 19.2728 24.5091 21.8364 22.6182 23.5773C20.9637 25.1046 18.7 26 16 26C12.0909 26 8.70912 23.7591 7.06366 20.4909C6.38638 19.1409 6 17.6137 6 16C6 14.3864 6.38636 12.8591 7.06364 11.5091C8.7091 8.24093 12.0909 6 16 6C18.6955 6 20.9591 6.99091 22.6909 8.60455L19.8228 11.4727Z" fill="white"/>
</svg>
