<svg width="32" height="32" viewBox="0 0 32 32" fill="none" xmlns="http://www.w3.org/2000/svg">
<path d="M0 4C0 1.79086 1.79086 0 4 0H28C30.2091 0 32 1.79086 32 4V28C32 30.2091 30.2091 32 28 32H4C1.79086 32 0 30.2091 0 28V4Z" fill="#D1D1D1"/>
<path fill-rule="evenodd" clip-rule="evenodd" d="M24.8821 12.1024C24.8899 12.3023 24.8925 12.5021 24.8925 12.7019C24.8925 18.7616 20.6298 25.7571 12.8348 25.7571C10.4404 25.7571 8.21385 24.994 6.33789 23.6948C6.6695 23.7311 7.00628 23.7585 7.34822 23.7585C9.33357 23.7585 11.1622 23.0224 12.6126 21.7869C10.7582 21.7596 9.19232 20.4241 8.65227 18.6072C8.91153 18.6617 9.17852 18.689 9.45156 18.689C9.83657 18.689 10.2104 18.6345 10.5687 18.5255C8.62813 18.1076 7.16649 16.2543 7.16649 14.0285C7.16649 14.0013 7.16649 13.9921 7.16649 13.974C7.7384 14.3101 8.393 14.519 9.08808 14.5462C7.94942 13.7195 7.20092 12.3113 7.20092 10.7215C7.20092 9.88567 7.40936 9.09524 7.77628 8.41387C9.86585 11.1939 12.9899 13.02 16.5118 13.2107C16.4395 12.8746 16.4024 12.5204 16.4024 12.1661C16.4024 9.63137 18.2999 7.57812 20.641 7.57812C21.8598 7.57812 22.9605 8.13239 23.7331 9.02271C24.7004 8.82284 25.6065 8.4413 26.4265 7.91437C26.1087 8.9864 25.4377 9.88562 24.5609 10.4489C25.4187 10.3399 26.237 10.0948 26.9958 9.73136C26.4265 10.6489 25.7099 11.4574 24.8821 12.1024Z" fill="white"/>
</svg>
