<svg width="126" height="37" viewBox="0 0 126 37" fill="none" xmlns="http://www.w3.org/2000/svg">
<path d="M0 2.10492H9.1919L11.0308 7.35892H45.0625C44.371 12.1557 43.6776 16.9523 42.9886 21.7495L42.951 21.859C42.4275 23.3862 41.5843 24.5226 40.4881 25.2978C39.344 26.1069 37.9621 26.4919 36.4136 26.4919H20.1569C18.5377 26.4919 17.2132 26.2963 16.021 25.519C14.8491 24.755 13.9339 23.4954 13.1689 21.3929L7.3374 4.73093H0V2.10492ZM11.9499 9.98492L15.6304 20.5006C16.184 22.0212 16.7625 22.8779 17.4468 23.324C18.1109 23.757 19.0061 23.8659 20.1569 23.8659H36.4136C37.4261 23.8659 38.2982 23.6364 38.9803 23.154C39.6 22.7158 40.0949 22.042 40.432 21.1118L42.0356 9.98492H11.9499Z" fill="#F58634"/>
<path fill-rule="evenodd" clip-rule="evenodd" d="M34.5854 0.437622H21.4879C19.1935 0.437622 17.327 2.30422 17.327 4.59842V17.696C17.327 19.9902 19.1935 21.8568 21.4879 21.8568H34.5854C36.8796 21.8568 38.7461 19.9902 38.7461 17.696V4.59842C38.7461 2.30422 36.8796 0.437622 34.5854 0.437622Z" fill="url(#paint0_linear)"/>
<path d="M31.5665 1.49852L21.2913 6.54912L36.4011 6.27442L34.5542 2.51702C34.0105 1.41082 32.6728 0.954822 31.5665 1.49852Z" fill="#8BC53F"/>
<path d="M33.9274 3.3533L20.527 6.7243L37.1684 7.1591L36.6364 4.97341C36.3356 3.77791 35.1228 3.0526 33.9274 3.3533Z" fill="#008F4C"/>
<path d="M36.8164 14.4338C36.8164 13.5786 36.1229 12.885 35.2676 12.885C34.4122 12.885 33.7189 13.5786 33.7189 14.4338C33.7189 15.2892 34.4122 15.9826 35.2676 15.9826C36.1229 15.9826 36.8164 15.2892 36.8164 14.4338Z" fill="white"/>
<path d="M34.8202 6.45102H20.5568C20.3577 6.45102 20.1963 6.61232 20.1963 6.81142C20.1963 7.01052 20.3577 7.17182 20.5568 7.17182H34.8202C36.9701 7.17182 38.7193 8.94472 38.7193 11.1238L38.7461 11.442V8.66371C37.9302 7.33661 36.4757 6.45102 34.8202 6.45102Z" fill="white"/>
<path d="M59.7496 22.5604C59.7496 22.0096 59.8682 21.4818 60.1053 20.9769C60.3425 20.472 60.6791 20.0322 61.1151 19.6573C61.5512 19.2825 62.079 18.9803 62.6987 18.7508C63.3183 18.5213 64.0182 18.4066 64.7985 18.4066C65.5176 18.4066 66.1717 18.5213 66.7607 18.7508C67.3498 18.9803 67.8584 19.3016 68.2868 19.7147C68.7152 20.1278 69.0442 20.6135 69.2737 21.172C69.5032 21.7304 69.6179 22.3386 69.6179 22.9965H66.9787C66.9787 22.3539 66.7875 21.849 66.405 21.4818C66.0225 21.1146 65.487 20.931 64.7985 20.931C64.11 20.931 63.5745 21.0993 63.192 21.4359C62.8096 21.7725 62.6183 22.1397 62.6183 22.5375C62.6183 22.9659 62.8019 23.2948 63.1691 23.5243C63.5363 23.7538 63.9953 23.9603 64.5461 24.1439C65.0969 24.3275 65.6974 24.5188 66.3476 24.7177C66.9978 24.9166 67.5984 25.1843 68.1492 25.5209C68.6999 25.8575 69.1589 26.2974 69.5261 26.8405C69.8933 27.3837 70.0768 28.0913 70.0768 28.9633C70.0768 29.4835 69.9507 29.9884 69.6982 30.478C69.4458 30.9676 69.0901 31.4075 68.6311 31.7976C68.1721 32.1877 67.6175 32.5014 66.9673 32.7385C66.317 32.9757 65.5941 33.0943 64.7985 33.0943C63.9876 33.0943 63.2647 32.9795 62.6298 32.75C61.9948 32.5205 61.4556 32.1954 61.0119 31.7747C60.5682 31.3539 60.2278 30.8567 59.9906 30.283C59.7535 29.7092 59.6349 29.0781 59.6349 28.3896H62.3888C62.3888 29.0322 62.603 29.5562 63.0314 29.9616C63.4598 30.3671 64.0488 30.5698 64.7985 30.5698C65.6094 30.5698 66.2137 30.3977 66.6115 30.0535C67.0093 29.7092 67.2082 29.3076 67.2082 28.8486C67.2082 28.4049 67.0246 28.0607 66.6574 27.8159C66.2903 27.5711 65.8312 27.353 65.2805 27.1618C64.7297 26.9706 64.1292 26.7831 63.4789 26.5995C62.8287 26.416 62.2282 26.1635 61.6774 25.8422C61.1266 25.5209 60.6676 25.104 60.3004 24.5915C59.9332 24.0789 59.7496 23.4019 59.7496 22.5604ZM74.4381 9.6037C74.4381 10.4725 74.6896 11.1663 75.1926 11.6844C75.6958 12.2028 76.3206 12.4619 77.0677 12.4619C77.8144 12.4619 78.4396 12.2028 78.9426 11.6844C79.4457 11.1663 79.6972 10.4725 79.6972 9.6037C79.6972 8.7348 79.4457 8.0413 78.9426 7.5229C78.4396 7.0048 77.8144 6.74551 77.0677 6.74551C76.3206 6.74551 75.6958 7.0048 75.1926 7.5229C74.6896 8.0413 74.4381 8.7348 74.4381 9.6037ZM77.4106 4.23021C78.0659 4.23021 78.6911 4.3638 79.2856 4.6303C79.8802 4.8972 80.4021 5.2706 80.8519 5.7508C81.3013 6.231 81.6597 6.79891 81.9268 7.45431C82.1932 8.10991 82.3268 8.8262 82.3268 9.6037C82.3268 10.3811 82.1932 11.0978 81.9268 11.753C81.6597 12.4086 81.3013 12.9763 80.8519 13.4565C80.4021 13.9368 79.8802 14.3104 79.2856 14.577C78.6911 14.8439 78.0659 14.9772 77.4106 14.9772C76.9682 14.9772 76.5835 14.9235 76.2559 14.8171C75.928 14.7106 75.6421 14.5963 75.3986 14.4741C75.1241 14.3218 74.88 14.1465 74.6668 13.9481V18.5213V23.4555C74.8657 23.2413 75.1029 23.05 75.3783 22.8817C75.6231 22.744 75.9329 22.614 76.3077 22.4916C76.6826 22.3692 77.1301 22.308 77.6503 22.308C78.2164 22.308 78.7479 22.4113 79.2452 22.6178C79.7424 22.8243 80.1671 23.1227 80.519 23.5128C80.8708 23.903 81.1501 24.3734 81.3566 24.9242C81.5632 25.475 81.6664 26.0946 81.6664 26.7831V32.9795H79.0272V27.1274C79.0272 26.4389 78.8245 25.8843 78.4191 25.4635C78.0136 25.0428 77.4896 24.8324 76.847 24.8324C76.2044 24.8324 75.6804 25.0428 75.275 25.4635C74.8695 25.8843 74.6668 26.4389 74.6668 27.1274V32.9795H72.0372V18.5213V16.9313V4.3446H73.9808L74.4381 5.37351C74.6668 5.16021 74.9334 4.96971 75.2384 4.80181C75.4975 4.66471 75.8101 4.53531 76.176 4.41311C76.5417 4.29131 76.9534 4.23021 77.4106 4.23021ZM66.0923 9.375L64.263 4.11591L62.4337 9.375H66.0923ZM60.4902 14.8627H57.632L63.0054 0.457402H65.5206L70.8942 14.8627H68.0359L67.0069 11.8902H61.5191L60.4902 14.8627ZM88.9576 6.7454C88.2716 6.7454 87.7113 6.9437 87.2768 7.34C86.8426 7.7365 86.5641 8.22421 86.4423 8.80341H91.4727C91.3505 8.22421 91.0726 7.7365 90.6381 7.34C90.2036 6.9437 89.6436 6.7454 88.9576 6.7454ZM93.645 11.6616C93.5078 12.0581 93.298 12.4544 93.0161 12.8506C92.7339 13.2471 92.3911 13.6016 91.9873 13.9138C91.5832 14.2264 91.1259 14.4819 90.6152 14.6798C90.1044 14.8779 89.552 14.9771 88.9576 14.9771C88.2409 14.9771 87.5663 14.8364 86.9339 14.5541C86.3012 14.2722 85.7449 13.8873 85.2647 13.3993C84.7844 12.9116 84.4033 12.344 84.1215 11.6959C83.8391 11.0482 83.6985 10.3506 83.6985 9.6036C83.6985 8.8569 83.8391 8.15951 84.1215 7.51131C84.4033 6.86371 84.7844 6.29601 85.2647 5.80811C85.7449 5.32021 86.3012 4.9354 86.9339 4.6533C87.5663 4.3713 88.2409 4.23021 88.9576 4.23021C89.6436 4.23021 90.2912 4.35991 90.9011 4.61891C91.5107 4.87831 92.0443 5.2442 92.5018 5.7165C92.959 6.1892 93.3209 6.757 93.5877 7.42C93.8543 8.0831 93.988 8.8112 93.988 9.6036C93.988 9.7258 93.98 9.84371 93.9651 9.95801C93.9499 10.0724 93.9342 10.1831 93.9194 10.2896C93.904 10.4118 93.8886 10.5261 93.8736 10.6327H86.5567C86.6784 11.151 86.9375 11.5855 87.3341 11.936C87.7303 12.2868 88.2716 12.4619 88.9576 12.4619C89.308 12.4619 89.6013 12.4239 89.8378 12.3475C90.074 12.2714 90.2757 12.18 90.4436 12.0731C90.6266 11.9513 90.7789 11.8141 90.9011 11.6616H93.645ZM98.561 14.8627H95.9314V0.457402H98.561V14.8627ZM103.02 11.5472C103.08 11.8981 103.248 12.1953 103.523 12.439C103.797 12.683 104.163 12.8049 104.62 12.8049C105.077 12.8049 105.439 12.687 105.706 12.4505C105.973 12.2143 106.106 11.9513 106.106 11.6616C106.106 11.4179 105.973 11.2271 105.706 11.0899C105.439 10.9528 105.108 10.8269 104.712 10.7127C104.315 10.5983 103.885 10.4804 103.42 10.3582C102.954 10.2364 102.524 10.0574 102.128 9.82091C101.731 9.58471 101.4 9.27991 101.133 8.90631C100.866 8.53291 100.733 8.04131 100.733 7.43141C100.733 7.00481 100.82 6.59671 100.996 6.20811C101.171 5.81941 101.426 5.48031 101.762 5.19051C102.097 4.90111 102.494 4.6686 102.951 4.4932C103.408 4.3181 103.926 4.23021 104.506 4.23021C105.771 4.23021 106.743 4.5353 107.421 5.1448C108.099 5.7548 108.5 6.51681 108.622 7.43141H106.106C106.045 7.20281 105.881 6.9741 105.615 6.7454C105.348 6.5168 105.016 6.4024 104.62 6.4024C104.224 6.4024 103.915 6.50181 103.694 6.69971C103.473 6.89801 103.363 7.14201 103.363 7.43141C103.363 7.67541 103.496 7.86591 103.763 8.00301C104.029 8.14021 104.361 8.266 104.757 8.3803C105.154 8.4947 105.584 8.6169 106.049 8.7462C106.514 8.8759 106.945 9.06281 107.341 9.30641C107.737 9.55041 108.069 9.8667 108.336 10.2553C108.602 10.6441 108.736 11.151 108.736 11.7758C108.736 12.2028 108.644 12.6105 108.461 12.9992C108.279 13.388 108.019 13.7273 107.684 14.0167C107.349 14.3065 106.941 14.5391 106.461 14.7141C105.981 14.8891 105.443 14.9771 104.849 14.9771C103.477 14.9771 102.436 14.6649 101.728 14.0396C101.019 13.4148 100.611 12.5841 100.504 11.5472H103.02ZM113.309 14.8627H110.679V4.3445H113.309V14.8627ZM112.051 2.97261C111.655 2.97261 111.308 2.82391 111.011 2.52671C110.714 2.22951 110.565 1.88291 110.565 1.48631C110.565 1.09011 110.714 0.743206 111.011 0.446006C111.308 0.148606 111.655 0 112.051 0C112.448 0 112.795 0.148606 113.092 0.446006C113.389 0.743206 113.538 1.09011 113.538 1.48631C113.538 1.88291 113.389 2.22951 113.092 2.52671C112.795 2.82391 112.448 2.97261 112.051 2.97261ZM121.198 4.23021C121.822 4.23021 122.394 4.33311 122.912 4.53881C123.43 4.74471 123.876 5.0419 124.25 5.4307C124.623 5.8194 124.913 6.2881 125.119 6.8369C125.325 7.3856 125.428 8.0031 125.428 8.6891V14.8627H122.798V9.032C122.798 8.3461 122.596 7.79361 122.192 7.37431C121.788 6.95511 121.266 6.7454 120.626 6.7454C119.986 6.7454 119.463 6.95511 119.06 7.37431C118.656 7.79361 118.454 8.3461 118.454 9.032V14.8627H115.824V4.3445H117.768L118.225 5.37351C118.484 5.16031 118.766 4.96981 119.071 4.80181C119.33 4.66471 119.639 4.5353 119.997 4.4132C120.355 4.2913 120.755 4.23021 121.198 4.23021ZM86.1416 27.7011C86.1416 28.5732 86.3941 29.2693 86.8989 29.7895C87.4038 30.3097 88.0311 30.5698 88.7808 30.5698C89.5305 30.5698 90.1577 30.3097 90.6627 29.7895C91.1675 29.2693 91.42 28.5732 91.42 27.7011C91.42 26.829 91.1675 26.1329 90.6627 25.6127C90.1577 25.0925 89.5305 24.8324 88.7808 24.8324C88.0311 24.8324 87.4038 25.0925 86.8989 25.6127C86.3941 26.1329 86.1416 26.829 86.1416 27.7011ZM94.0592 27.7011C94.0592 28.4508 93.9176 29.1508 93.6345 29.801C93.3515 30.4512 92.9691 31.0211 92.4872 31.5107C92.0052 32.0003 91.4468 32.3867 90.8119 32.6697C90.1768 32.9527 89.4999 33.0943 88.7808 33.0943C88.0617 33.0943 87.3847 32.9527 86.7498 32.6697C86.1148 32.3867 85.5564 32.0003 85.0744 31.5107C84.5924 31.0211 84.2099 30.4512 83.9269 29.801C83.6438 29.1508 83.5024 28.4508 83.5024 27.7011C83.5024 26.9514 83.6438 26.2515 83.9269 25.6012C84.2099 24.951 84.5924 24.3811 85.0744 23.8915C85.5564 23.4019 86.1148 23.0156 86.7498 22.7325C87.3847 22.4495 88.0617 22.308 88.7808 22.308C89.4999 22.308 90.1768 22.4495 90.8119 22.7325C91.4468 23.0156 92.0052 23.4019 92.4872 23.8915C92.9691 24.3811 93.3515 24.951 93.6345 25.6012C93.9176 26.2515 94.0592 26.9514 94.0592 27.7011ZM101.403 22.308C102.061 22.308 102.688 22.4419 103.285 22.7096C103.882 22.9773 104.406 23.3522 104.857 23.8341C105.308 24.3161 105.668 24.886 105.936 25.5439C106.203 26.2018 106.337 26.9208 106.337 27.7011C106.337 28.4814 106.203 29.2005 105.936 29.8584C105.668 30.5163 105.308 31.0862 104.857 31.5681C104.406 32.0501 103.882 32.4249 103.285 32.6926C102.688 32.9604 102.061 33.0943 101.403 33.0943C100.959 33.0943 100.573 33.0407 100.244 32.9336C99.9151 32.8265 99.6283 32.7118 99.3834 32.5894C99.1081 32.4364 98.8633 32.2604 98.6491 32.0615V36.6514H96.0099V22.4227H97.9606L98.4195 23.4555C98.649 23.2413 98.9167 23.05 99.2227 22.8817C99.4829 22.744 99.7966 22.614 100.164 22.4916C100.531 22.3692 100.944 22.308 101.403 22.308ZM98.4195 27.7011C98.4195 28.5732 98.672 29.2693 99.1769 29.7895C99.6817 30.3097 100.309 30.5698 101.059 30.5698C101.808 30.5698 102.436 30.3097 102.941 29.7895C103.446 29.2693 103.698 28.5732 103.698 27.7011C103.698 26.829 103.446 26.1329 102.941 25.6127C102.436 25.0925 101.808 24.8324 101.059 24.8324C100.309 24.8324 99.6817 25.0925 99.1769 25.6127C98.672 26.1329 98.4195 26.829 98.4195 27.7011Z" fill="#00527D"/>
<path d="M21.7122 27.9791C22.9174 27.9791 24.009 28.4679 24.799 29.2579C25.589 30.0479 26.0778 31.1395 26.0778 32.3447C26.0778 33.55 25.589 34.6415 24.799 35.4314C24.009 36.2214 22.9176 36.7102 21.7122 36.7102C20.5068 36.7102 19.4154 36.2214 18.6254 35.4314C17.8354 34.6415 17.3466 33.55 17.3466 32.3447C17.3466 31.1395 17.8354 30.0479 18.6254 29.2579C19.4154 28.4679 20.5068 27.9791 21.7122 27.9791ZM22.9424 31.1145C22.6278 30.7999 22.1927 30.6051 21.7122 30.6051C21.2317 30.6051 20.7966 30.7999 20.482 31.1145C20.1674 31.4291 19.9726 31.8642 19.9726 32.3447C19.9726 32.8251 20.1674 33.2602 20.482 33.5748C20.7966 33.8894 21.2317 34.0842 21.7122 34.0842C22.1927 34.0842 22.6278 33.8894 22.9424 33.5748C23.257 33.2602 23.4518 32.8251 23.4518 32.3447C23.4518 31.8642 23.257 31.4291 22.9424 31.1145Z" fill="#F58634"/>
<path d="M34.3607 27.9791C35.5659 27.9791 36.6575 28.4679 37.4475 29.2579C38.2375 30.0479 38.7263 31.1395 38.7263 32.3447C38.7263 33.55 38.2375 34.6415 37.4475 35.4314C36.6575 36.2214 35.5661 36.7102 34.3607 36.7102C33.1553 36.7102 32.0639 36.2215 31.2739 35.4315C30.4839 34.6415 29.9952 33.5501 29.9952 32.3447C29.9952 31.1393 30.484 30.0479 31.274 29.2579C32.0639 28.4679 33.1554 27.9791 34.3607 27.9791ZM35.5909 31.1145C35.2763 30.7999 34.8412 30.6051 34.3607 30.6051C33.8803 30.6051 33.4452 30.7999 33.1306 31.1145C32.816 31.4291 32.6212 31.8642 32.6212 32.3447C32.6212 32.8253 32.8159 33.2603 33.1305 33.5749C33.4451 33.8895 33.8801 34.0842 34.3607 34.0842C34.8412 34.0842 35.2763 33.8894 35.5909 33.5748C35.9055 33.2602 36.1003 32.8251 36.1003 32.3447C36.1003 31.8642 35.9055 31.4291 35.5909 31.1145Z" fill="#F58634"/>
<defs>
<linearGradient id="paint0_linear" x1="36.6904" y1="1.36992" x2="18.924" y2="21.4428" gradientUnits="userSpaceOnUse">
<stop stop-color="#FCB94D"/>
<stop offset="0.458824" stop-color="#F57D38"/>
<stop offset="1" stop-color="#EE4023"/>
</linearGradient>
</defs>
</svg>