<svg width="16" height="18" viewBox="0 0 16 18" fill="none" xmlns="http://www.w3.org/2000/svg">
<path d="M13 12.3998C12.3667 12.3998 11.8 12.6498 11.3667 13.0415L5.425 9.58317C5.46667 9.3915 5.5 9.19984 5.5 8.99984C5.5 8.79984 5.46667 8.60817 5.425 8.4165L11.3 4.9915C11.75 5.40817 12.3417 5.6665 13 5.6665C14.3833 5.6665 15.5 4.54984 15.5 3.1665C15.5 1.78317 14.3833 0.666504 13 0.666504C11.6167 0.666504 10.5 1.78317 10.5 3.1665C10.5 3.3665 10.5333 3.55817 10.575 3.74984L4.7 7.17484C4.25 6.75817 3.65833 6.49984 3 6.49984C1.61667 6.49984 0.5 7.6165 0.5 8.99984C0.5 10.3832 1.61667 11.4998 3 11.4998C3.65833 11.4998 4.25 11.2415 4.7 10.8248L10.6333 14.2915C10.5917 14.4665 10.5667 14.6498 10.5667 14.8332C10.5667 16.1748 11.6583 17.2665 13 17.2665C14.3417 17.2665 15.4333 16.1748 15.4333 14.8332C15.4333 13.4915 14.3417 12.3998 13 12.3998Z" fill="#8E8E8E"/>
</svg>
