<svg width="17" height="17" viewBox="0 0 18 18" fill="none" xmlns="http://www.w3.org/2000/svg">
<path d="M12.9996 11.0001H12.2096L11.9296 10.7301C13.1296 9.33014 13.7496 7.42014 13.4096 5.39014C12.9396 2.61014 10.6196 0.390137 7.81965 0.0501373C3.58965 -0.469863 0.029649 3.09014 0.549649 7.32014C0.889649 10.1201 3.10965 12.4401 5.88965 12.9101C7.91965 13.2501 9.82965 12.6301 11.2296 11.4301L11.4996 11.7101V12.5001L15.7496 16.7501C16.1596 17.1601 16.8296 17.1601 17.2396 16.7501C17.6496 16.3401 17.6496 15.6701 17.2396 15.2601L12.9996 11.0001ZM6.99965 11.0001C4.50965 11.0001 2.49965 8.99014 2.49965 6.50014C2.49965 4.01014 4.50965 2.00014 6.99965 2.00014C9.48965 2.00014 11.4996 4.01014 11.4996 6.50014C11.4996 8.99014 9.48965 11.0001 6.99965 11.0001Z" fill="#212121"/>
</svg>
